<?xml version="1.0" encoding="UTF-8" standalone="no"?>
<!-- Created with Inkscape (http://www.inkscape.org/) -->

<svg
   version="1.1"
   id="mylogo"
   width="784.4187"
   height="786.70129"
   viewBox="0 0 784.4187 786.70129"
   sodipodi:docname="design.svg"
   inkscape:version="1.2.2 (732a01da63, 2022-12-09, custom)"
   xmlns:inkscape="http://www.inkscape.org/namespaces/inkscape"
   xmlns:sodipodi="http://sodipodi.sourceforge.net/DTD/sodipodi-0.dtd"
   xmlns="http://www.w3.org/2000/svg"
   xmlns:svg="http://www.w3.org/2000/svg">
  <defs
     id="defs22">
    <filter
       style="color-interpolation-filters:sRGB"
       inkscape:label="Blur"
       id="filter4402"
       x="-0.097498752"
       y="-0.097160876"
       width="1.1949975"
       height="1.1943218">
      <feGaussianBlur
         stdDeviation="20 20"
         result="blur"
         id="feGaussianBlur4400" />
    </filter>
  </defs>
  <sodipodi:namedview
     id="namedview20"
     pagecolor="#ffffff"
     bordercolor="#000000"
     borderopacity="0.25"
     inkscape:showpageshadow="2"
     inkscape:pageopacity="0.0"
     inkscape:pagecheckerboard="0"
     inkscape:deskcolor="#d1d1d1"
     showgrid="false"
     inkscape:zoom="0.65429688"
     inkscape:cx="463.09254"
     inkscape:cy="520.40597"
     inkscape:window-width="1600"
     inkscape:window-height="836"
     inkscape:window-x="0"
     inkscape:window-y="27"
     inkscape:window-maximized="1"
     inkscape:current-layer="g26" />
  <g
     id="g26"
     inkscape:groupmode="layer"
     inkscape:label="Page 1"
     transform="matrix(1.3333333,0,0,-1.3333333,-119.79066,905.35064)">
    <path
       d="M 231.784,631.013 137.843,538.094 V 136.987 H 537.29 l 92.867,94.908 -0.948,399.118 z M 185.596,518.161 251.411,583.26 H 524.59 l 57.118,-58.411 0.119,-49.919 -57.618,-0.191 v 0.426 c 0,30.323 -24.81,55.133 -55.133,55.133 v 0 H 298.902 c -30.324,0 -55.133,-24.81 -55.133,-55.133 v 0 c 0,-30.323 24.809,-55.133 55.133,-55.133 v 0 h 222.702 l 60.491,-58.22 0.263,-110.489 -65.153,-66.584 h -289.38 l 57.619,59.909 h 179.291 c 32.71,0 59.474,26.763 59.474,59.475 v 0 c 0,32.71 -26.764,59.473 -59.474,59.473 v 0 H 247.242 v -78.141 l -61.646,-57.828 z m 93.77,-42.996 c 0,10.267 8.4,18.667 18.667,18.667 v 0 h 171.043 c 10.267,0 18.666,-8.4 18.666,-18.667 v 0 c 0,-10.267 -8.399,-18.667 -18.666,-18.667 v 0 H 298.033 c -10.267,0 -18.667,8.4 -18.667,18.667 m 0,-170.175 c 0,10.267 8.4,18.668 18.667,18.668 v 0 h 171.043 c 10.267,0 18.666,-8.401 18.666,-18.668 v 0 c 0,-10.266 -8.399,-18.667 -18.666,-18.667 v 0 H 298.033 c -10.267,0 -18.667,8.401 -18.667,18.667"
       style="fill:#fefefe;fill-opacity:1;stroke:none;filter:url(#filter4402)"
       id="path2958"
       inkscape:export-filename="../ccabe995/mylogo.svg"
       inkscape:export-xdpi="96"
       inkscape:export-ydpi="96" />
    <path
       d="M 231.784,631.013 137.843,538.094 V 136.987 H 537.29 l 92.867,94.908 -0.948,399.118 z M 185.596,518.161 251.411,583.26 H 524.59 l 57.118,-58.411 0.119,-49.919 -57.618,-0.191 v 0.426 c 0,30.323 -24.81,55.133 -55.133,55.133 v 0 H 298.902 c -30.324,0 -55.133,-24.81 -55.133,-55.133 v 0 c 0,-30.323 24.809,-55.133 55.133,-55.133 v 0 h 222.702 l 60.491,-58.22 0.263,-110.489 -65.153,-66.584 h -289.38 l 57.619,59.909 h 179.291 c 32.71,0 59.474,26.763 59.474,59.475 v 0 c 0,32.71 -26.764,59.473 -59.474,59.473 v 0 H 247.242 v -78.141 l -61.646,-57.828 z m 93.77,-42.996 c 0,10.267 8.4,18.667 18.667,18.667 v 0 h 171.043 c 10.267,0 18.666,-8.4 18.666,-18.667 v 0 c 0,-10.267 -8.399,-18.667 -18.666,-18.667 v 0 H 298.033 c -10.267,0 -18.667,8.4 -18.667,18.667 m 0,-170.175 c 0,10.267 8.4,18.668 18.667,18.668 v 0 h 171.043 c 10.267,0 18.666,-8.401 18.666,-18.668 v 0 c 0,-10.266 -8.399,-18.667 -18.666,-18.667 v 0 H 298.033 c -10.267,0 -18.667,8.401 -18.667,18.667"
       style="fill:#fefefe;fill-opacity:1;stroke:none"
       id="path4394"
       inkscape:export-filename="../ccabe995/mylogo.svg"
       inkscape:export-xdpi="96"
       inkscape:export-ydpi="96" />
  </g>
</svg>
